<svg width="29" height="36" viewBox="0 0 29 36" fill="none" xmlns="http://www.w3.org/2000/svg">
<path d="M0 4.13379C0 4.13379 0.863862 8.26802 14.3977 8.26802C27.9315 8.26802 28.7954 4.13379 28.7954 4.13379V31.6953C28.7954 31.6953 27.7876 35.8296 14.3977 35.8296C1.00784 35.8296 0 31.6953 0 31.6953V4.13379Z" fill="#353535"/>
<path d="M28.2954 4.27204C28.2954 4.61694 28.0573 5.04822 27.3768 5.52559C26.7103 5.99317 25.7132 6.43456 24.4362 6.81348C21.8886 7.56941 18.3393 8.04408 14.3977 8.04408C10.4561 8.04408 6.90685 7.56941 4.35922 6.81348C3.08217 6.43456 2.08513 5.99317 1.41859 5.52559C0.738118 5.04822 0.5 4.61694 0.5 4.27204C0.5 3.92714 0.738118 3.49586 1.41859 3.01849C2.08513 2.5509 3.08217 2.10952 4.35922 1.7306C6.90685 0.974672 10.4561 0.5 14.3977 0.5C18.3393 0.5 21.8886 0.974672 24.4362 1.7306C25.7132 2.10952 26.7103 2.5509 27.3768 3.01849C28.0573 3.49586 28.2954 3.92714 28.2954 4.27204Z" fill="#F7F7F2" stroke="#1E1E1E"/>
<path d="M13.2459 8.4059C13.2459 12.1352 13.2459 15.1585 11.3742 15.1585C9.5025 15.1585 9.5025 12.1352 9.5025 8.4059C9.5025 4.67655 10.3405 1.65332 11.3742 1.65332C12.4079 1.65332 13.2459 4.67655 13.2459 8.4059Z" fill="#F7F7F2"/>
<path d="M19.8688 7.02805C19.8688 10.1485 19.8688 12.6782 18.573 12.6782C17.2772 12.6782 17.2772 10.1485 17.2772 7.02805C17.2772 3.90757 17.8574 1.37793 18.573 1.37793C19.2887 1.37793 19.8688 3.90757 19.8688 7.02805Z" fill="#F7F7F2"/>
</svg>
