<svg width="54" height="37" viewBox="0 0 54 37" fill="none" xmlns="http://www.w3.org/2000/svg">
<path d="M45.7431 3.09874C42.2476 1.65112 38.51 0.599057 34.6025 0C34.1226 0.76797 33.562 1.80091 33.1754 2.6226C29.0216 2.06967 24.906 2.06967 20.8286 2.6226C20.4421 1.80091 19.8687 0.76797 19.3846 0C15.4728 0.599057 11.731 1.65499 8.23543 3.10641C1.18495 12.5369 -0.726325 21.7331 0.229312 30.7988C4.90557 33.8898 9.43742 35.7675 13.8928 36.9962C14.9928 35.6561 15.974 34.2315 16.8191 32.7302C15.2094 32.1888 13.6677 31.5207 12.2109 30.7451C12.5974 30.4916 12.9754 30.2267 13.3407 29.954C22.2259 33.6326 31.88 33.6326 40.6592 29.954C41.0287 30.2267 41.4066 30.4916 41.7889 30.7451C40.3278 31.5245 38.7819 32.1926 37.1722 32.7341C38.0173 34.2315 38.9942 35.66 40.0985 37C44.5582 35.7713 49.0942 33.8937 53.7705 30.7988C54.8918 20.2894 51.855 11.1776 45.7431 3.09874ZM18.0296 25.2235C15.3624 25.2235 13.175 23.0194 13.175 20.3354C13.175 17.6514 15.3157 15.4436 18.0296 15.4436C20.7437 15.4436 22.931 17.6476 22.8843 20.3354C22.8885 23.0194 20.7437 25.2235 18.0296 25.2235ZM35.9702 25.2235C33.3029 25.2235 31.1155 23.0194 31.1155 20.3354C31.1155 17.6514 33.2561 15.4436 35.9702 15.4436C38.6841 15.4436 40.8715 17.6476 40.8248 20.3354C40.8248 23.0194 38.6841 25.2235 35.9702 25.2235Z" fill="#F7F7F2"/>
</svg>
