<svg width="37" height="37" viewBox="0 0 37 37" fill="none" xmlns="http://www.w3.org/2000/svg">
<path d="M26.2646 0L10.7539 0C4.0165 0 0 4.0145 0 10.7485L0 26.233C0 32.9855 4.0165 37 10.7539 37H26.2461C32.9834 37 36.9999 32.9855 36.9999 26.2515V10.7485C37.0184 4.0145 33.0019 0 26.2646 0ZM18.5092 25.678C14.5482 25.678 11.3276 22.459 11.3276 18.5C11.3276 14.541 14.5482 11.322 18.5092 11.322C22.4702 11.322 25.6908 14.541 25.6908 18.5C25.6908 22.459 22.4702 25.678 18.5092 25.678ZM29.4667 9.028C29.3741 9.25 29.2446 9.4535 29.078 9.6385C28.8929 9.805 28.6893 9.9345 28.4672 10.027C28.1303 10.1699 27.7585 10.2093 27.3992 10.1401C27.0399 10.0709 26.7093 9.89627 26.4497 9.6385C26.2831 9.4535 26.1535 9.25 26.061 9.028C25.9659 8.80566 25.9156 8.56678 25.9129 8.325C25.9129 8.0845 25.9684 7.844 26.061 7.622C26.1535 7.3815 26.2831 7.1965 26.4497 7.0115C26.8754 6.586 27.5232 6.3825 28.1155 6.512C28.2451 6.5305 28.3561 6.5675 28.4672 6.623C28.5782 6.66 28.6893 6.7155 28.8003 6.7895C28.8929 6.845 28.9854 6.9375 29.078 7.0115C29.2446 7.1965 29.3741 7.3815 29.4667 7.622C29.5592 7.844 29.6148 8.0845 29.6148 8.325C29.6148 8.5655 29.5592 8.806 29.4667 9.028Z" fill="#F7F7F2"/>
</svg>
