<svg width="74" height="95" viewBox="0 0 74 95" fill="none" xmlns="http://www.w3.org/2000/svg">
<path d="M42 5C42 2.23858 39.7614 -1.20706e-07 37 0C34.2386 1.20706e-07 32 2.23858 32 5L42 5ZM33.4645 93.5355C35.4171 95.4882 38.5829 95.4882 40.5355 93.5355L72.3553 61.7157C74.308 59.7631 74.308 56.5973 72.3553 54.6447C70.4027 52.692 67.2369 52.692 65.2843 54.6447L37 82.9289L8.71573 54.6447C6.76311 52.692 3.59728 52.692 1.64466 54.6447C-0.307958 56.5973 -0.307958 59.7631 1.64466 61.7157L33.4645 93.5355ZM32 5L32 90L42 90L42 5L32 5Z" fill="#F75D48"/>
</svg>
