<svg width="152" height="152" viewBox="0 0 152 152" fill="none" xmlns="http://www.w3.org/2000/svg">
<rect width="69.8378" height="73.9459" rx="4" fill="#F7F7F2"/>
<rect x="82.1621" width="69.8378" height="73.9459" rx="4" fill="#F7F7F2"/>
<rect x="88.3242" y="6.16211" width="57.5135" height="61.6216" rx="3" fill="#353535"/>
<rect x="6.16211" y="6.16211" width="57.5135" height="61.6216" rx="3" fill="#353535"/>
<rect y="86.2703" width="152" height="65.7297" rx="4" fill="#F7F7F2"/>
<rect x="6.16211" y="92.4324" width="90.3784" height="53.4054" rx="3" fill="#353535"/>
<rect x="100.648" y="92.4324" width="45.1892" height="53.4054" rx="3" fill="#353535"/>
<rect x="12.3242" y="98.5946" width="49.2973" height="4.10811" fill="#F7F7F2"/>
<rect x="12.3242" y="108.865" width="78.0541" height="4.10811" fill="#F7F7F2"/>
<rect x="12.3242" y="117.081" width="78.0541" height="4.10811" fill="#F7F7F2"/>
<rect x="12.3242" y="125.297" width="67.7838" height="4.10811" fill="#F7F7F2"/>
<rect x="12.3242" y="133.514" width="39.027" height="6.16216" fill="#F7F7F2"/>
<rect x="14.3784" y="55.4595" width="41.0811" height="6.16216" fill="#F7F7F2"/>
<rect x="14.3784" y="45.1892" width="41.0811" height="4.10811" fill="#F7F7F2"/>
<rect x="96.5405" y="45.1892" width="41.0811" height="4.10811" fill="#F7F7F2"/>
<rect x="14.3784" y="36.973" width="41.0811" height="4.10811" fill="#F7F7F2"/>
<rect x="96.5405" y="36.973" width="41.0811" height="4.10811" fill="#F7F7F2"/>
<rect x="14.3784" y="28.7567" width="41.0811" height="4.10811" fill="#F7F7F2"/>
<rect x="96.5405" y="28.7567" width="41.0811" height="4.10811" fill="#F7F7F2"/>
<rect x="14.3784" y="14.3784" width="26.7027" height="4.10811" fill="#F7F7F2"/>
<rect x="96.5405" y="14.3784" width="26.7027" height="4.10811" fill="#F7F7F2"/>
<rect x="96.5405" y="57.5135" width="41.0811" height="6.16216" fill="#F7F7F2"/>
<rect x="106.811" y="98.5946" width="32.8649" height="41.0811" rx="1" fill="#F7F7F2"/>
</svg>
