<svg width="29" height="36" viewBox="0 0 29 36" fill="none" xmlns="http://www.w3.org/2000/svg">
<path d="M0 4.13422C0 4.13422 0.863862 8.26845 14.3977 8.26845C27.9315 8.26845 28.7954 4.13422 28.7954 4.13422V31.6958C28.7954 31.6958 27.7876 35.83 14.3977 35.83C1.00784 35.83 0 31.6958 0 31.6958V4.13422Z" fill="#F7F7F2"/>
<path d="M28.2954 4.27204C28.2954 4.61694 28.0573 5.04822 27.3768 5.52559C26.7103 5.99317 25.7132 6.43456 24.4362 6.81348C21.8886 7.56941 18.3393 8.04408 14.3977 8.04408C10.4561 8.04408 6.90685 7.56941 4.35922 6.81348C3.08217 6.43456 2.08513 5.99317 1.41859 5.52559C0.738118 5.04822 0.5 4.61694 0.5 4.27204C0.5 3.92714 0.738118 3.49586 1.41859 3.01849C2.08513 2.5509 3.08217 2.10952 4.35922 1.7306C6.90685 0.974672 10.4561 0.5 14.3977 0.5C18.3393 0.5 21.8886 0.974672 24.4362 1.7306C25.7132 2.10952 26.7103 2.5509 27.3768 3.01849C28.0573 3.49586 28.2954 3.92714 28.2954 4.27204Z" fill="#353535" stroke="#E1E1DE"/>
<path d="M13.2459 8.40626C13.2459 12.1356 13.2459 15.1588 11.3742 15.1588C9.5025 15.1588 9.5025 12.1356 9.5025 8.40626C9.5025 4.67692 10.3405 1.65369 11.3742 1.65369C12.4079 1.65369 13.2459 4.67692 13.2459 8.40626Z" fill="#353535"/>
<path d="M19.8688 7.0282C19.8688 10.1487 19.8688 12.6783 18.573 12.6783C17.2772 12.6783 17.2772 10.1487 17.2772 7.0282C17.2772 3.90773 17.8574 1.37808 18.573 1.37808C19.2887 1.37808 19.8688 3.90773 19.8688 7.0282Z" fill="#353535"/>
</svg>
