<svg width="36" height="36" viewBox="0 0 36 36" fill="none" xmlns="http://www.w3.org/2000/svg">
<path d="M26.875 17.9167C26.875 22.8642 22.8642 26.875 17.9167 26.875C12.9691 26.875 8.95833 22.8642 8.95833 17.9167C8.95833 12.9691 12.9691 8.95833 17.9167 8.95833C22.8642 8.95833 26.875 12.9691 26.875 17.9167ZM17.0208 5.375H18.8125C19.3073 5.375 19.7083 4.97392 19.7083 4.47917V0.895833C19.7083 0.401078 19.3073 0 18.8125 0H17.0208C16.5261 0 16.125 0.401078 16.125 0.895833V4.47917C16.125 4.97392 16.5261 5.375 17.0208 5.375ZM18.8125 30.4583H17.0208C16.5261 30.4583 16.125 30.8594 16.125 31.3542V34.9375C16.125 35.4323 16.5261 35.8333 17.0208 35.8333H18.8125C19.3073 35.8333 19.7083 35.4323 19.7083 34.9375V31.3542C19.7083 30.8594 19.3073 30.4583 18.8125 30.4583ZM34.9375 16.125H31.3542C30.8594 16.125 30.4583 16.5261 30.4583 17.0208V18.8125C30.4583 19.3073 30.8594 19.7083 31.3542 19.7083H34.9375C35.4323 19.7083 35.8333 19.3073 35.8333 18.8125V17.0208C35.8333 16.5261 35.4323 16.125 34.9375 16.125ZM5.375 18.8125V17.0208C5.375 16.5261 4.97392 16.125 4.47917 16.125H0.895833C0.401078 16.125 0 16.5261 0 17.0208V18.8125C0 19.3073 0.401078 19.7083 0.895833 19.7083H4.47917C4.97392 19.7083 5.375 19.3073 5.375 18.8125ZM27.4125 9.675C27.5807 9.84459 27.8097 9.93999 28.0485 9.93999C28.2874 9.93999 28.5164 9.84459 28.6846 9.675L31.2108 7.16667C31.3804 6.99846 31.4758 6.76949 31.4758 6.53062C31.4758 6.29176 31.3804 6.06279 31.2108 5.89458L29.9567 4.64042C29.7885 4.47082 29.5595 4.37543 29.3206 4.37543C29.0818 4.37543 28.8528 4.47082 28.6846 4.64042L26.1583 7.16667C25.9887 7.33487 25.8933 7.56385 25.8933 7.80271C25.8933 8.04157 25.9887 8.27054 26.1583 8.43875L27.4125 9.675ZM8.42083 26.1583C8.25263 25.9887 8.02365 25.8933 7.78479 25.8933C7.54593 25.8933 7.31696 25.9887 7.14875 26.1583L4.6225 28.6667C4.45291 28.8349 4.35751 29.0638 4.35751 29.3027C4.35751 29.5416 4.45291 29.7705 4.6225 29.9387L5.87667 31.1929C6.04487 31.3625 6.27385 31.4579 6.51271 31.4579C6.75157 31.4579 6.98054 31.3625 7.14875 31.1929L9.675 28.6667C9.84459 28.4985 9.93999 28.2695 9.93999 28.0306C9.93999 27.7918 9.84459 27.5628 9.675 27.3946L8.42083 26.1583ZM28.6667 26.1583C28.4985 25.9887 28.2695 25.8933 28.0306 25.8933C27.7918 25.8933 27.5628 25.9887 27.3946 26.1583L26.1404 27.4125C25.9708 27.5807 25.8754 27.8097 25.8754 28.0485C25.8754 28.2874 25.9708 28.5164 26.1404 28.6846L28.6667 31.2108C28.8349 31.3804 29.0638 31.4758 29.3027 31.4758C29.5416 31.4758 29.7705 31.3804 29.9387 31.2108L31.1929 29.9567C31.3625 29.7885 31.4579 29.5595 31.4579 29.3206C31.4579 29.0818 31.3625 28.8528 31.1929 28.6846L28.6667 26.1583ZM7.16667 9.675C7.33487 9.84459 7.56385 9.93999 7.80271 9.93999C8.04157 9.93999 8.27054 9.84459 8.43875 9.675L9.69292 8.42083C10.0294 8.06764 10.0215 7.51011 9.675 7.16667L7.16667 4.6225C6.99846 4.45291 6.76949 4.35751 6.53062 4.35751C6.29176 4.35751 6.06279 4.45291 5.89458 4.6225L4.64042 5.87667C4.47082 6.04487 4.37543 6.27385 4.37543 6.51271C4.37543 6.75157 4.47082 6.98054 4.64042 7.14875L7.16667 9.675Z" fill="#353535"/>
</svg>
