<svg width="78" height="78" viewBox="0 0 78 78" fill="none" xmlns="http://www.w3.org/2000/svg">
<g clip-path="url(#clip0_309_10)">
<path d="M74.7033 36.2802C72.8874 36.2802 71.3902 37.6023 71.3902 39.434C71.2309 51.3642 64.3499 62.1476 53.8214 67.9295C37.9569 76.6423 19.4165 68.8215 12.3126 58.2134L22.3314 60.2999C23.9879 60.6344 25.8037 59.631 26.1382 57.8151C26.4727 56.1586 25.4692 54.3428 23.6534 54.0083L3.95026 49.867C2.80343 49.5962 -0.206994 50.4245 0.143426 53.5145L2.62822 73.3929C2.7875 75.0494 4.12547 76.2122 5.782 76.2122C8.25087 76.2122 9.25435 74.3964 9.09507 72.5646L7.93231 62.8644C24.0357 82.1853 44.4716 79.4934 56.8 73.9026C69.5585 67.1013 77.6818 54.0242 77.8411 39.5933C77.857 37.7775 76.5191 36.2802 74.7033 36.2802Z" fill="#F75D48"/>
<path d="M3.28122 41.7118C5.09703 41.7118 6.59428 40.3897 6.59428 38.558C6.75357 26.6278 13.6345 15.8444 24.1631 10.0625C40.0275 1.34974 58.5679 9.17048 65.6719 19.7787L55.6531 17.6921C53.9966 17.3576 52.1807 18.361 51.8462 20.1769C51.5118 21.8334 52.5152 23.6492 54.331 23.9837L74.0501 28.125C75.197 28.3958 78.2074 27.5675 77.857 24.4775L75.3722 4.59909C75.2129 2.94256 73.8749 1.7798 72.2184 1.7798C69.7495 1.7798 68.7461 3.59562 68.9053 5.42736L70.0522 15.1276C53.9488 -4.17734 33.5129 -1.5014 21.1845 4.10532C8.42603 10.8907 0.302651 23.9837 0.127441 38.3987C0.127441 40.2304 1.46541 41.7118 3.28122 41.7118Z" fill="#F75D48"/>
</g>
<defs>
<clipPath id="clip0_309_10">
<rect width="78" height="78" fill="white"/>
</clipPath>
</defs>
</svg>
