<svg width="89" height="89" viewBox="0 0 89 89" fill="none" xmlns="http://www.w3.org/2000/svg">
<path d="M18.1667 84C24.75 76.9778 31.3333 70.6898 31.3333 62.9333C31.3333 55.1769 25.4384 48.8889 18.1667 48.8889C10.8949 48.8889 5 55.1769 5 62.9333C5 70.6898 11.5833 76.9778 18.1667 84ZM18.1667 84H68.6389C74.6986 84 79.6111 79.0875 79.6111 73.0278C79.6111 66.968 74.6986 62.0556 68.6389 62.0556H57.6667M70.8333 40.1111C77.4167 33.0889 84 26.801 84 19.0444C84 11.2879 78.1053 5 70.8333 5C63.5614 5 57.6667 11.2879 57.6667 19.0444C57.6667 26.801 64.25 33.0889 70.8333 40.1111ZM70.8333 40.1111H55.4722C49.4125 40.1111 44.5 45.0236 44.5 51.0833C44.5 57.1431 49.4125 62.0556 55.4722 62.0556H60.3" stroke="#353535" stroke-width="10" stroke-linecap="round" stroke-linejoin="round"/>
</svg>
