<svg width="85" height="87" viewBox="0 0 85 87" fill="none" xmlns="http://www.w3.org/2000/svg">
<path d="M5 82L50.8333 81.9996V19.4534C50.8333 13.7697 50.8333 10.9279 49.6613 8.95818C48.6333 7.2311 47.0158 5.93361 45.1071 5.30489C42.93 4.58783 40.1558 5.2043 34.6075 6.43725L23.7742 8.84472C20.0487 9.67261 18.186 10.0866 16.7955 11.0883C15.5691 11.9719 14.606 13.1725 14.0096 14.5614C13.3333 16.1361 13.3333 18.0443 13.3333 21.8608V82M50.8083 15.3317H58.3333C63.0004 15.3317 65.3342 15.3317 67.1167 16.24C68.6846 17.039 69.9596 18.3138 70.7583 19.8819C71.6667 21.6645 71.6667 23.9981 71.6667 28.6654V82H80M38.3333 44.4992H38.375" stroke="#353535" stroke-width="10" stroke-linecap="round" stroke-linejoin="round"/>
</svg>
