<svg width="42" height="40" viewBox="0 0 42 40" fill="none" xmlns="http://www.w3.org/2000/svg">
<g clip-path="url(#clip0_279_154)">
<path d="M27.8548 3.15287C26.9818 2.35882 25.8381 1.92139 24.6343 1.92139C23.7631 1.92139 22.9096 2.15599 22.1661 2.59978L9.36582 10.2409H4.69312C2.1276 10.2409 0.0402832 12.2286 0.0402832 14.6721V25.3124C0.0402832 27.7557 2.12752 29.7436 4.69312 29.7436H9.33944L22.166 37.4003C22.9094 37.8442 23.763 38.0787 24.6343 38.0787C25.8381 38.0787 26.9817 37.6414 27.855 36.8473C28.3008 36.4419 28.6518 35.9645 28.8988 35.4285C29.1583 34.8653 29.2897 34.2655 29.2897 33.6458V20.0079V19.9922V6.3545C29.2897 5.73454 29.1583 5.13474 28.8988 4.57154C28.6518 4.03569 28.3006 3.55835 27.8548 3.15287ZM25.8446 19.9922V20.0079V33.6456C25.8446 34.3199 25.2633 34.7974 24.6343 34.7974C24.42 34.7974 24.2001 34.7419 23.9958 34.62L11.036 26.8837C10.5747 26.6083 10.0413 26.4623 9.49683 26.4623H4.69312C4.02624 26.4623 3.48564 25.9474 3.48564 25.3123V14.6721C3.48564 14.037 4.02624 13.5222 4.69312 13.5222H9.52329C10.0678 13.5222 10.601 13.3761 11.0624 13.1007L23.9957 5.38014C24.2001 5.25813 24.4198 5.20275 24.6342 5.20275C25.2633 5.20275 25.8445 5.68039 25.8445 6.35457V19.9922H25.8446Z" fill="#F7F7F2"/>
<path d="M24.6342 38.1172C23.7552 38.1172 22.8943 37.8806 22.1445 37.4329L9.32778 29.782H4.69305C2.10525 29.7821 0 27.777 0 25.3126V14.6723C0 12.2078 2.10525 10.2028 4.69305 10.2028H9.35424L22.1447 2.56759C22.8946 2.11998 23.7555 1.8833 24.6342 1.8833C25.8483 1.8833 27.0019 2.32441 27.8826 3.12535C28.3322 3.53436 28.6864 4.01576 28.9356 4.55636C29.1973 5.1243 29.3299 5.72932 29.3299 6.35471V33.6458C29.3299 34.2711 29.1973 34.8761 28.9356 35.444C28.6863 35.985 28.3322 36.4664 27.8827 36.8751C27.0019 37.6761 25.8483 38.1172 24.6342 38.1172ZM4.69305 10.2794C2.14965 10.2794 0.0804237 12.25 0.0804237 14.6723V25.3126C0.0804237 27.7349 2.14965 29.7055 4.69305 29.7055H9.35095L9.36076 29.7114L22.1873 37.3681C22.9243 37.8081 23.7704 38.0407 24.6343 38.0407C25.8276 38.0407 26.9616 37.6071 27.8272 36.8198C28.2689 36.4181 28.617 35.9449 28.8619 35.4133C29.1191 34.8552 29.2495 34.2606 29.2495 33.646V6.35471C29.2495 5.74004 29.1191 5.14529 28.8619 4.58715C28.6171 4.05581 28.2689 3.58269 27.827 3.18073C26.9614 2.39342 25.8276 1.95989 24.6343 1.95989C23.7707 1.95989 22.9245 2.19251 22.1875 2.63247L9.37733 10.2794H4.69305ZM24.6342 34.8359C24.4034 34.8359 24.1751 34.7725 23.9743 34.6526L11.0145 26.9164C10.559 26.6445 10.0342 26.5008 9.49675 26.5008H4.69305C4.0051 26.5008 3.44535 25.9678 3.44535 25.3125V14.6723C3.44535 14.0171 4.00502 13.4841 4.69305 13.4841H9.52321C10.0606 13.4841 10.5854 13.3404 11.0409 13.0685L23.9743 5.34788C24.1751 5.22801 24.4034 5.16459 24.6342 5.16459C25.3237 5.16459 25.8847 5.69845 25.8847 6.35471V33.6458C25.8847 34.302 25.3237 34.8359 24.6342 34.8359ZM4.69305 13.5607C4.04941 13.5607 3.52578 14.0593 3.52578 14.6723V25.3126C3.52578 25.9256 4.04941 26.4243 4.69305 26.4243H9.49675C10.0493 26.4243 10.5889 26.572 11.0572 26.8515L24.017 34.5877C24.205 34.7 24.4184 34.7593 24.6342 34.7593C25.2793 34.7593 25.8043 34.2598 25.8043 33.6458V6.35471C25.8043 5.74073 25.2794 5.24118 24.6342 5.24118C24.4184 5.24118 24.205 5.30047 24.017 5.41275L11.0835 13.1334C10.6151 13.4129 10.0756 13.5607 9.52313 13.5607H4.69305Z" fill="#F7F7F2"/>
<path d="M34.1217 11.9898C33.6982 11.1783 32.6641 10.8477 31.8124 11.251C30.9604 11.6543 30.6131 12.6391 31.0366 13.4504C32.0359 15.3649 32.564 17.6328 32.564 20.0089C32.564 22.422 32.0208 24.7184 30.9931 26.65C30.563 27.4582 30.9023 28.4455 31.751 28.8551C32.0006 28.9755 32.2664 29.0326 32.5282 29.0326C33.1568 29.0326 33.7627 28.7037 34.0663 28.1332C35.3376 25.7441 36.0094 22.9348 36.0094 20.0089C36.0095 17.1286 35.3567 14.3556 34.1217 11.9898Z" fill="#353535"/>
<path d="M32.5281 29.0711C32.2502 29.0711 31.9825 29.01 31.7327 28.8895C30.8656 28.471 30.5177 27.4586 30.957 26.6329C31.9819 24.7068 32.5236 22.4162 32.5236 20.0091C32.5236 17.6387 31.9969 15.3767 31.0005 13.4677C30.7909 13.0661 30.7579 12.6107 30.908 12.1856C31.0579 11.7605 31.3727 11.4165 31.7943 11.2169C32.0407 11.1002 32.3043 11.041 32.5776 11.041C33.2522 11.041 33.8576 11.3981 34.1576 11.9729C35.3954 14.3442 36.0495 17.123 36.0493 20.0091C36.0493 22.9411 35.3759 25.7565 34.1019 28.1507C33.7999 28.7184 33.1967 29.0711 32.5281 29.0711ZM32.5776 11.1175C32.3169 11.1175 32.0654 11.174 31.8302 11.2854C31.4277 11.4758 31.1273 11.8042 30.9841 12.2099C30.8411 12.6156 30.8723 13.0502 31.0724 13.4334C32.0744 15.353 32.6041 17.6268 32.6041 20.0089C32.6041 22.4281 32.0594 24.7306 31.0288 26.6673C30.6094 27.4555 30.9415 28.4217 31.769 28.821C32.0074 28.9361 32.2629 28.9944 32.528 28.9944C33.1663 28.9944 33.7419 28.6578 34.0303 28.116C35.2986 25.7324 35.969 22.929 35.969 20.0089C35.9691 17.1347 35.3178 14.3676 34.0856 12.0069C33.7994 11.4584 33.2215 11.1175 32.5776 11.1175Z" fill="#353535"/>
<path d="M36.7172 6.75887C35.8652 7.16221 35.5179 8.1469 35.9414 8.95834C37.6249 12.1833 38.5145 15.9946 38.5145 19.98C38.5145 24.0278 37.5992 27.8873 35.8676 31.1418C35.4375 31.95 35.7768 32.9372 36.6255 33.3468C36.8751 33.4673 37.1409 33.5243 37.4029 33.5243C38.0313 33.5243 38.6374 33.1954 38.9408 32.6249C40.916 28.913 41.9599 24.5405 41.9599 19.98C41.9599 15.4904 40.9456 11.1741 39.0266 7.49761C38.603 6.68625 37.5692 6.35537 36.7172 6.75887Z" fill="#353535"/>
<path d="M37.4028 33.5628C37.1247 33.5628 36.857 33.5017 36.6072 33.3811C36.1871 33.1784 35.8752 32.8321 35.7287 32.4059C35.5823 31.9797 35.6188 31.5246 35.8316 31.1246C37.5604 27.8755 38.4742 24.0218 38.4742 19.9801C38.4742 16.0005 37.5859 12.1951 35.9053 8.97556C35.4726 8.1465 35.8288 7.13684 36.6992 6.72476C36.9457 6.60804 37.2093 6.54883 37.4827 6.54883C38.1571 6.54883 38.7624 6.90599 39.0625 7.48075C40.9843 11.1624 41.9999 15.4847 41.9999 19.9801C41.9999 24.5466 40.9545 28.9252 38.9766 32.6423C38.6747 33.2101 38.0716 33.5628 37.4028 33.5628ZM37.4828 6.62542C37.222 6.62542 36.9704 6.68195 36.7351 6.79339C36.3326 6.98388 36.0322 7.31224 35.889 7.71796C35.7459 8.12368 35.7773 8.5582 35.9773 8.94147C37.6635 12.1716 38.5547 15.9887 38.5547 19.9802C38.5547 24.0339 37.6379 27.8996 35.9034 31.1593C35.7003 31.541 35.6654 31.9753 35.8051 32.3821C35.9449 32.7889 36.2426 33.1194 36.6436 33.3128C36.882 33.4279 37.1374 33.4863 37.4028 33.4863C38.0411 33.4863 38.6167 33.1496 38.9048 32.6078C40.8771 28.9013 41.9195 24.5347 41.9195 19.9802C41.9195 15.4964 40.9067 11.186 38.9905 7.51491C38.7042 6.96619 38.1264 6.62542 37.4828 6.62542Z" fill="#353535"/>
</g>
<defs>
<clipPath id="clip0_279_154">
<rect width="42" height="40" fill="white"/>
</clipPath>
</defs>
</svg>
